<?xml version="1.0" encoding="utf-8"?>
<!-- Generator: Adobe Illustrator 18.1.1, SVG Export Plug-In . SVG Version: 6.00 Build 0)  -->
<svg version="1.1" id="Layer_1" xmlns="http://www.w3.org/2000/svg" xmlns:xlink="http://www.w3.org/1999/xlink" x="0px" y="0px"
	 viewBox="0 0 74.9 75.3" enable-background="new 0 0 74.9 75.3" xml:space="preserve">
<path d="M15.8,10.4C24.2,3.1,35.5-1,46.5,0.2c11,1.2,21.5,8,26.2,18c3.9,8.2,2.2,18.3-2.4,26.2c-4.6,7.9-11.6,14-18.8,19.7
	c-7.2,5.7-15.3,11.2-24.4,11.3c-4.2,0-8.3-1.1-12.4-0.3c-3.8,0.7-7.1-2.8-9-6.2C-4.9,50.3-0.4,24.4,15.8,10.4 M29.7,36.8
	c2.5-2.8,5.9-4.9,9.6-4.9c3.7,0,7.5,2.6,8.1,6.3c-4.3,1.1-8.7,2.3-12.2,4.9c-3.6,2.7-6.1,8.1-3.4,11.7c2,2.7,6.1,3.1,9.1,1.8
	s5.3-4.1,7.1-7c4.4-6.9,6.8-16.7,1.1-22.5c-5.9-6.2-16.9-3.3-22.6,3c-7.2,8-8.8,20.7-3.7,30.2c1.1,2,3.9,4.1,5.4,2.3
	C22.8,55,23.5,43.7,29.7,36.8 M49.1,10.7c-2.9-1-6-1.9-9.1-2c-7.5-0.4-14.9,3.3-20.2,8.7C14.6,22.8,11.3,29.8,9,37
	c-0.2,0.6-0.4,1.3-0.2,1.9c0.4,1.3,2.3,1.4,3.4,0.6s1.5-2.2,1.9-3.4c3.6-10.2,11.7-19.2,22.3-21.7c10.5-2.5,22.9,3,26.4,13.3
	c2.1,6.1,0.8,13.1-3.2,18.1c7.9-2,11.2-12.5,8-20.1C64.4,18.1,56.8,13.4,49.1,10.7 M21.9,68.7c-2.3-5.6-4.6-11.1-7-16.7
	c-0.4-0.9-1-1.6-1.9-1.9C9.8,57.2,14.3,66.7,21.9,68.7 M60,34.4c-0.4-5.3-2.2-11.7-7.4-13c1.6,5.5,3.3,11,4.9,16.4
	C59,38.7,60.1,36.1,60,34.4 M55.2,7.4c-1.8-2.8-5.8-3.8-8.8-2.3c2.2,1.5,4.7,2.8,7.2,3.8c0.6,0.2,1.3,0.4,1.8,0.1
	c0.5-0.4,0.3-1.5-0.3-1.3L55.2,7.4z"/>
</svg>
